<svg t="1729258562282" class="icon" viewBox="0 0 1024 1024" version="1.1" xmlns="http://www.w3.org/2000/svg" p-id="11647" width="30" height="30"><path d="M463.035 111.71c25.858 4.007 52.622 5.43 76.412 1.938 29.866-4.008 62.19-6.852 91.798-13.834 17.325-3.879 35.814-7.499 54.561-10.085 14.481 17.067 27.798 36.72 39.952 55.855 9.438 14.998 19.652 29.608 29.996 44.218 7.887 11.378 17.972 23.014 27.669 33.616 14.48 17.067 38.658 37.624 59.345 52.105 29.867 21.204 92.057 57.277 93.22 59.992 0.776 1.81-6.723 32.194-10.472 48.356-7.5 32.452-13.576 63.353-16.291 94.9-4.655 34.393-1.035 70.724 5.3 103.823 7.37 35.685 13.964 71.887 20.17 107.054-23.531 13.964-51.2 30.772-73.18 46.158-11.377 7.887-23.79 16.162-33.874 24.566-8.792 6.852-19.265 14.351-27.41 22.885-11.507 10.084-24.178 22.626-34.263 36.33-18.618 23.532-72.145 111.84-80.29 115.2-2.716 1.165-88.567-19.005-131.233-25.34-35.685-5.172-75.378-2.328-106.279 4.266-12.412 3.103-25.47 2.198-36.978 4.784-24.178 4.784-51.717 11.895-77.317 16.29-9.568-20.298-24.953-40.08-37.107-59.215-8.663-13.188-16.808-25.471-26.376-38.271-8.016-9.31-14.998-21.075-23.919-29.996-6.465-7.758-15.386-16.679-23.143-22.885-15.516-14.48-33.229-29.35-51.847-41.503-26.893-19.394-81.325-54.432-82.1-56.242-2.587-6.336 5.559-34.91 6.205-38.271 12.024-52.105 23.014-109.252 20.04-154.117-2.456-33.616-8.662-63.612-14.35-92.703-3.492-18.49-6.983-36.978-11.25-55.079-0.775-1.81-1.939-4.525-2.068-7.499 11.378-13.059 30.642-22.238 44.477-32.194 14.093-9.05 29.09-18.36 42.925-28.315 13.834-9.956 27.54-19.782 40.598-31.548 33.875-29.737 64.776-74.084 94.125-119.725 1.035-2.586 21.075-32.97 26.376-35.167 8.792-3.75 89.083 15.385 126.578 19.652z" p-id="11648"></path><path d="M662.792 909.576c-12.541-2.198-27.151-4.525-40.21-8.534-91.927-21.591-173.77-13.963-247.854 7.37-4.008 0.517-7.5 2.069-11.895 1.68l149.204-364.217 150.755 363.7z m237.9-506.958c-25.213 98.65-10.086 180.493 9.438 260.655l-365.253-151.79 364.477-151.144c-1.81 13.188-5.043 28.186-8.663 42.28zM476.61 511.354l-360.856 149.72c1.164-9.955 2.715-21.203 5.172-30.512 23.66-102.142 13.187-186.053-6.594-269.059l362.278 149.85z m42.15-376.501c47.838-0.906 98.909-9.568 143.127-21.592l-149.98 364.606L361.54 115.07c51.846 10.99 108.477 21.074 157.22 19.782z" fill="#FFFFFF" p-id="11649"></path><path d="M899.269 687.71c-42.537 23.918-83.782 53.656-120.63 88.953-34.134 31.935-64.647 79.256-91.798 122.957L536.473 536.954 899.27 687.709zM336.586 900.007c-8.662-13.188-18.618-27.022-27.54-41.115-3.232-5.042-7.627-10.602-10.73-15.645-35.297-59.733-103.693-111.062-172.736-155.927l362.28-151.4-151.274 364.09zM714.38 166.012c2.845 4.137 7.628 10.602 10.731 15.645 35.297 59.862 101.883 108.864 174.287 154.505l-362.02 149.98 149.333-361.116c8.663 13.059 18.619 26.893 27.67 40.986z m-226.52 321.81L124.158 337.325c8.792-6.852 19.265-14.351 30.254-20.945 29.609-19.653 61.156-42.15 89.988-68.784 2.328-2.069 5.301-7.499 9.956-11.507 29.479-29.996 55.596-73.438 83.006-111.063l150.497 362.796z" fill="#FF0000" p-id="11650"></path></svg>